<svg id="Laag_1" data-name="Laag 1" xmlns="http://www.w3.org/2000/svg" width="240.69" height="109.93" viewBox="0 0 240.69 109.93">
  <defs>
    <style>
      .cls-1 {
        fill: #006241;
      }

      .cls-2 {
        fill: #babf10;
      }
    </style>
  </defs>
  <title>LOGO</title>
  <g id="_Groep_" data-name="&lt;Groep&gt;">
    <g>
      <path class="cls-1" d="M110.51,20.21H105V4.89h-3V0.06h11.63V4.89h-3.14V20.21Z" transform="translate(-0.15 -0.04)"/>
      <path class="cls-1" d="M115.06,20.21V0.06h10.18V4.89h-4.7V7.46h4.22v4.83h-4.22v3.09h4.7v4.83H115.06Z" transform="translate(-0.15 -0.04)"/>
      <path class="cls-1" d="M139,14.08l-0.32,5.46a9.59,9.59,0,0,1-3.27.67,7.66,7.66,0,0,1-5.73-2.39q-2.6-2.68-2.6-7.6a10.8,10.8,0,0,1,2.44-7.38,8.74,8.74,0,0,1,9.23-2.3V6.11a3.58,3.58,0,0,0-2.51-1.21A3,3,0,0,0,133.6,6.3a7,7,0,0,0-.95,3.93,9.1,9.1,0,0,0,.24,2.17,5.1,5.1,0,0,0,.68,1.62,2.93,2.93,0,0,0,2.55,1.36A4.28,4.28,0,0,0,139,14.08Z" transform="translate(-0.15 -0.04)"/>
      <path class="cls-1" d="M155.11,20.21h-5.48v-8.1H147v8.1h-5.48V0.06H147V7.28h2.61V0.06h5.48V20.21Z" transform="translate(-0.15 -0.04)"/>
      <path class="cls-1" d="M157.95,20.21V0.06h5.23l2.74,7.07,0.51,1.44q0.28,0.81.62,1.87l0.56,1.77q-0.3-2.62-.46-4.49T167,4.59V0.06h5.28V20.21H167l-2.92-7.41q-0.46-1.19-.83-2.23t-0.65-2q0.33,2.13.48,3.71t0.15,2.77v5.14h-5.28Z" transform="translate(-0.15 -0.04)"/>
      <path class="cls-1" d="M180.53,20.21h-5.48V0.06h5.48V20.21Z" transform="translate(-0.15 -0.04)"/>
      <path class="cls-1" d="M183.37,20.21V0.06h10.18V4.89h-4.7V7.46h4.22v4.83h-4.22v3.09h4.7v4.83H183.37Z" transform="translate(-0.15 -0.04)"/>
      <path class="cls-1" d="M210.76,20.21h-5.91l-3.64-9.29,0.14,9.29h-5.48V0.06h5.48L201.22,8.7l3.23-8.64h5.78l-4.37,9.72Z" transform="translate(-0.15 -0.04)"/>
      <g>
        <path class="cls-2" d="M114.05,47.13l-0.32,5.46a9.59,9.59,0,0,1-3.27.67,7.66,7.66,0,0,1-5.73-2.39q-2.6-2.68-2.6-7.6a10.8,10.8,0,0,1,2.44-7.38,8.74,8.74,0,0,1,9.23-2.3v5.57a3.58,3.58,0,0,0-2.51-1.21,3,3,0,0,0-2.63,1.41,7,7,0,0,0-.95,3.93,9.11,9.11,0,0,0,.24,2.17,5.1,5.1,0,0,0,.68,1.62,2.93,2.93,0,0,0,2.55,1.36A4.28,4.28,0,0,0,114.05,47.13Z" transform="translate(-0.15 -0.04)"/>
        <path class="cls-2" d="M131.1,43.25A11.64,11.64,0,0,1,129,50.49a6.56,6.56,0,0,1-5.48,2.77,7,7,0,0,1-5.13-2.13q-2.69-2.7-2.69-8.09,0-5.17,2.81-7.9a6.86,6.86,0,0,1,5-2A6.63,6.63,0,0,1,129,35.86,12,12,0,0,1,131.1,43.25Zm-5.69,0q0-5.36-1.94-5.36a1.81,1.81,0,0,0-1.55,1.41,10.09,10.09,0,0,0-.56,3.84,11.13,11.13,0,0,0,.53,3.87,1.49,1.49,0,0,0,3,0A10.33,10.33,0,0,0,125.41,43.3Z" transform="translate(-0.15 -0.04)"/>
        <path class="cls-2" d="M143,53.26h-9.59V33.11h5.48V48.43H143v4.83Z" transform="translate(-0.15 -0.04)"/>
        <path class="cls-2" d="M154.23,53.26h-9.59V33.11h5.48V48.43h4.11v4.83Z" transform="translate(-0.15 -0.04)"/>
        <path class="cls-2" d="M155.86,53.26V33.11H166v4.83h-4.7v2.57h4.22v4.83h-4.22v3.09H166v4.83H155.86Z" transform="translate(-0.15 -0.04)"/>
        <path class="cls-2" d="M175.43,41.6h7.64v0.81q0,5.65-1.75,8.13a6.44,6.44,0,0,1-5.63,2.71,6.92,6.92,0,0,1-5.75-2.65,11.68,11.68,0,0,1-2.07-7.33A12,12,0,0,1,170,35.83a6.81,6.81,0,0,1,5.71-2.72q4.81,0,7,5L177.33,40a3.06,3.06,0,0,0-.54-1.51,1.3,1.3,0,0,0-1.07-.55q-2.26,0-2.26,5.8a9.39,9.39,0,0,0,.5,3.58,1.66,1.66,0,0,0,1.59,1.12,1.68,1.68,0,0,0,.79-0.18,1.7,1.7,0,0,0,.6-0.52,2.59,2.59,0,0,0,.38-0.81,3.85,3.85,0,0,0,.14-1.07h-2V41.6Z" transform="translate(-0.15 -0.04)"/>
        <path class="cls-2" d="M185.41,53.26V33.11h10.18v4.83h-4.7v2.57h4.22v4.83h-4.22v3.09h4.7v4.83H185.41Z" transform="translate(-0.15 -0.04)"/>
      </g>
      <path class="cls-1" d="M116.49,86.23h-5.92l-2.7-7.18q0-.18-0.14-0.48l-0.24-.72,0,1.33v7h-5.45V66.08h5.61a8.86,8.86,0,0,1,5.54,1.45,6.34,6.34,0,0,1,2.34,5.27,5.06,5.06,0,0,1-3.14,5.05Zm-8.94-11.11h0.37a2,2,0,0,0,1.58-.72,2.67,2.67,0,0,0,.63-1.83q0-2.26-2.38-2.26h-0.2v4.8Z" transform="translate(-0.15 -0.04)"/>
      <path class="cls-1" d="M133,76.22a11.64,11.64,0,0,1-2.11,7.23,6.56,6.56,0,0,1-5.48,2.77,7,7,0,0,1-5.13-2.13q-2.69-2.7-2.69-8.09,0-5.17,2.81-7.9a6.86,6.86,0,0,1,5-2,6.63,6.63,0,0,1,5.58,2.75A12,12,0,0,1,133,76.22Zm-5.69,0q0-5.36-1.94-5.36a1.81,1.81,0,0,0-1.55,1.41,10.09,10.09,0,0,0-.56,3.84,11.13,11.13,0,0,0,.53,3.87,1.49,1.49,0,0,0,3,0A10.33,10.33,0,0,0,127.28,76.27Z" transform="translate(-0.15 -0.04)"/>
      <path class="cls-1" d="M142.52,86.23H137V70.91h-3V66.08h11.63v4.83h-3.14V86.23Z" transform="translate(-0.15 -0.04)"/>
      <path class="cls-1" d="M154.15,86.23h-5.48V70.91h-3V66.08h11.63v4.83h-3.14V86.23Z" transform="translate(-0.15 -0.04)"/>
      <path class="cls-1" d="M158.71,86.23V66.08h10.18v4.83h-4.7v2.57h4.22v4.83h-4.22V81.4h4.7v4.83H158.71Z" transform="translate(-0.15 -0.04)"/>
      <path class="cls-1" d="M185.64,86.23h-5.92L177,79.05q0-.18-0.14-0.48l-0.24-.72,0,1.33v7h-5.45V66.08h5.61a8.86,8.86,0,0,1,5.54,1.45,6.34,6.34,0,0,1,2.34,5.27,5.06,5.06,0,0,1-3.14,5.05ZM176.7,75.12h0.37a2,2,0,0,0,1.58-.72,2.67,2.67,0,0,0,.63-1.83q0-2.26-2.38-2.26h-0.2v4.8Z" transform="translate(-0.15 -0.04)"/>
      <path class="cls-1" d="M187.45,86.23V66.08h4.73a8.75,8.75,0,0,1,6.32,2.17q3,2.83,3,7.92T199,83.91q-2.14,2.32-6.38,2.32h-5.12Zm5.48-4.83q2.94-.14,2.94-5a8.13,8.13,0,0,0-.75-3.81,2.26,2.26,0,0,0-2-1.41h-0.17V81.4Z" transform="translate(-0.15 -0.04)"/>
      <path class="cls-1" d="M217.89,86.23h-5.66l-0.41-2.56h-3.69l-0.45,2.56H202l4.87-20.15h6.7Zm-6.71-6.8-0.35-2.35a2.23,2.23,0,0,1-.05-0.35q0-.29-0.28-2.27,0-.22-0.07-0.61t-0.1-1L210.16,71q0,0.27-.07.61l-0.1.74q-0.09.81-.13,1.12t-0.05.38l-0.38,2.44-0.55,3.16h2.31Z" transform="translate(-0.15 -0.04)"/>
      <path class="cls-1" d="M240.17,86.23h-5.54L234.4,77l-0.18-3.67q-0.1,1.06-.22,2t-0.3,1.86l-1.79,9h-4.55l-1.47-9q-0.13-.78-0.35-2.69,0-.29-0.12-1.17l-0.13,3.72-0.49,9.14H219l2.36-20.15h6.82l1.14,6.79q0.14,0.84.26,1.81t0.2,2.13a33,33,0,0,1,.46-3.43l1.36-7.3h6.62Z" transform="translate(-0.15 -0.04)"/>
      <rect class="cls-2" width="86.79" height="86.26"/>
      <polygon class="cls-1" points="0 0 0 31.41 34.48 31.41 34.53 86.26 69.47 86.26 69.42 31.41 86.8 31.41 86.8 0 0 0"/>
    </g>
    <g>
      <path class="cls-1" d="M0.47,98.79H4.79v0.86H1.39v2.46h3.3V103H1.39v3.26h3.4v0.86H0.47v-8.3Z" transform="translate(-0.15 -0.04)"/>
      <path class="cls-1" d="M6.82,104.68a1.68,1.68,0,0,0,1.7,1.73,1.78,1.78,0,0,0,1.58-1.07l0.75,0.43a2.63,2.63,0,0,1-2.4,1.45,2.51,2.51,0,0,1-2.54-2.66,2.52,2.52,0,1,1,5,.12H6.82Zm3.15-.75a1.58,1.58,0,0,0-1.53-1.35,1.64,1.64,0,0,0-1.58,1.35H10Z" transform="translate(-0.15 -0.04)"/>
      <path class="cls-1" d="M13,102.54h0a1.75,1.75,0,0,1,1.48-.77c1.44,0,1.77,1,1.77,2.24v3.07H15.39v-2.92c0-.84-0.07-1.58-1.1-1.58-1.22,0-1.29,1.12-1.29,2v2.45H12.12v-5.17H13v0.63Z" transform="translate(-0.15 -0.04)"/>
      <path class="cls-1" d="M23.47,103.11a0.83,0.83,0,0,0-.71-0.53,0.63,0.63,0,0,0-.64.57c0,0.47.6,0.65,1.21,0.9a1.58,1.58,0,0,1,1.21,1.48,1.7,1.7,0,0,1-1.76,1.68,1.87,1.87,0,0,1-1.84-1.31l0.79-.33a1.11,1.11,0,0,0,1.06.82,0.79,0.79,0,0,0,.84-0.79c0-1.16-2.35-.76-2.35-2.39a1.48,1.48,0,0,1,1.55-1.46,1.57,1.57,0,0,1,1.38,1Z" transform="translate(-0.15 -0.04)"/>
      <path class="cls-1" d="M30.53,107.08H29.65v-0.72h0a2.19,2.19,0,0,1-1.79.86,2.74,2.74,0,0,1,0-5.46,2.25,2.25,0,0,1,1.78.88h0v-0.74h0.88v5.17Zm-4.28-2.64a1.79,1.79,0,0,0,1.7,2,1.77,1.77,0,0,0,1.74-2,1.73,1.73,0,0,0-1.75-1.87A1.76,1.76,0,0,0,26.25,104.44Z" transform="translate(-0.15 -0.04)"/>
      <path class="cls-1" d="M33.06,102.47h0a1.47,1.47,0,0,1,1.25-.7,1.59,1.59,0,0,1,1.44.86,1.73,1.73,0,0,1,1.56-.86c1.33,0,1.66,1.08,1.66,2.17v3.15H38.1v-3c0-.67,0-1.5-1-1.5s-1.13,1-1.13,1.76v2.74H35.14v-2.94c0-.64-0.08-1.56-0.93-1.56-1,0-1.15,1-1.15,1.83v2.67H32.17v-5.17h0.88v0.56Z" transform="translate(-0.15 -0.04)"/>
      <path class="cls-1" d="M41.12,104.68a1.68,1.68,0,0,0,1.7,1.73,1.78,1.78,0,0,0,1.58-1.07l0.75,0.43a2.63,2.63,0,0,1-2.4,1.45,2.51,2.51,0,0,1-2.54-2.66,2.52,2.52,0,1,1,5,.12H41.12Zm3.15-.75a1.58,1.58,0,0,0-1.53-1.35,1.64,1.64,0,0,0-1.58,1.35h3.11Z" transform="translate(-0.15 -0.04)"/>
      <path class="cls-1" d="M47.3,102.54h0a1.75,1.75,0,0,1,1.48-.77c1.44,0,1.77,1,1.77,2.24v3.07H49.69v-2.92c0-.84-0.07-1.58-1.1-1.58-1.22,0-1.29,1.12-1.29,2v2.45H46.42v-5.17H47.3v0.63Z" transform="translate(-0.15 -0.04)"/>
      <path class="cls-1" d="M54,105.41l1.62-3.89,1.63,3.89,1.55-3.5h1l-2.58,5.54-1.6-3.85L54,107.44l-2.56-5.54h1Z" transform="translate(-0.15 -0.04)"/>
      <path class="cls-1" d="M61.12,104.68a1.68,1.68,0,0,0,1.7,1.73,1.78,1.78,0,0,0,1.58-1.07l0.75,0.43a2.63,2.63,0,0,1-2.4,1.45,2.51,2.51,0,0,1-2.54-2.66,2.52,2.52,0,1,1,5,.12H61.12Zm3.15-.75a1.58,1.58,0,0,0-1.53-1.35,1.64,1.64,0,0,0-1.58,1.35h3.11Z" transform="translate(-0.15 -0.04)"/>
      <path class="cls-1" d="M67.26,102.47h0a1.34,1.34,0,0,1,1.15-.7,1.57,1.57,0,0,1,.8.24l-0.42.8a0.87,0.87,0,0,0-.53-0.23c-1,0-1,1.24-1,1.91v2.59H66.37v-5.17h0.89v0.56Z" transform="translate(-0.15 -0.04)"/>
      <path class="cls-1" d="M71,103.82l1.89-1.92H74l-2.22,2.2,2.64,3H73.29l-2.09-2.36L71,105v2.12H70.08V98H71v5.82Z" transform="translate(-0.15 -0.04)"/>
      <path class="cls-1" d="M76.57,100a0.63,0.63,0,0,1-1.26,0A0.63,0.63,0,0,1,76.57,100Zm-0.19,7.12H75.49v-5.17h0.88v5.17Z" transform="translate(-0.15 -0.04)"/>
      <path class="cls-1" d="M79.11,102.54h0a1.75,1.75,0,0,1,1.48-.77c1.44,0,1.77,1,1.77,2.24v3.07H81.5v-2.92c0-.84-0.07-1.58-1.09-1.58-1.22,0-1.29,1.12-1.29,2v2.45H78.23v-5.17h0.89v0.63Z" transform="translate(-0.15 -0.04)"/>
      <path class="cls-1" d="M88.76,106.83a3.27,3.27,0,0,1-.53,2.22,2.52,2.52,0,0,1-2,.91,2.38,2.38,0,0,1-2.56-2.38h0.88a1.54,1.54,0,0,0,1.66,1.56c1.37,0,1.67-1,1.67-2.17v-0.62h0a2.31,2.31,0,0,1-1.8.86,2.54,2.54,0,0,1-2.48-2.71,2.58,2.58,0,0,1,2.51-2.75,2.17,2.17,0,0,1,1.77.88h0v-0.74h0.88v4.92Zm-4.28-2.39a1.79,1.79,0,0,0,1.7,2,1.77,1.77,0,0,0,1.74-2,1.73,1.73,0,0,0-1.75-1.87A1.76,1.76,0,0,0,84.48,104.44Z" transform="translate(-0.15 -0.04)"/>
      <path class="cls-1" d="M92.59,103.11a0.83,0.83,0,0,0-.71-0.53,0.63,0.63,0,0,0-.64.57c0,0.47.6,0.65,1.21,0.9a1.58,1.58,0,0,1,1.21,1.48,1.7,1.7,0,0,1-1.76,1.68,1.87,1.87,0,0,1-1.84-1.31l0.79-.33a1.11,1.11,0,0,0,1.06.82,0.79,0.79,0,0,0,.84-0.79c0-1.16-2.35-.76-2.35-2.39a1.48,1.48,0,0,1,1.55-1.46,1.57,1.57,0,0,1,1.38,1Z" transform="translate(-0.15 -0.04)"/>
      <path class="cls-1" d="M97,103.11a0.83,0.83,0,0,0-.71-0.53,0.63,0.63,0,0,0-.64.57c0,0.47.6,0.65,1.21,0.9a1.58,1.58,0,0,1,1.21,1.48,1.7,1.7,0,0,1-1.76,1.68,1.87,1.87,0,0,1-1.84-1.31l0.79-.33a1.11,1.11,0,0,0,1.06.82,0.79,0.79,0,0,0,.84-0.79c0-1.16-2.35-.76-2.35-2.39a1.48,1.48,0,0,1,1.55-1.46,1.57,1.57,0,0,1,1.38,1Z" transform="translate(-0.15 -0.04)"/>
      <path class="cls-1" d="M103.18,103.45h0a2,2,0,0,0-1.62-.87,1.85,1.85,0,0,0-1.84,1.91,1.82,1.82,0,0,0,1.79,1.91,2,2,0,0,0,1.69-.89h0v1.18a2.86,2.86,0,0,1-1.65.53,2.69,2.69,0,0,1-2.77-2.73,2.74,2.74,0,0,1,2.78-2.73,2.81,2.81,0,0,1,1.6.52v1.17Z" transform="translate(-0.15 -0.04)"/>
      <path class="cls-1" d="M105.47,98v4.51l0,0a1.75,1.75,0,0,1,1.48-.77c1.44,0,1.77,1,1.77,2.24v3.07h-0.88v-2.92c0-.84-0.07-1.58-1.1-1.58-1.22,0-1.29,1.12-1.29,2v2.45h-0.88V98h0.88Z" transform="translate(-0.15 -0.04)"/>
      <path class="cls-1" d="M110,104.51a2.73,2.73,0,1,1,2.73,2.72A2.72,2.72,0,0,1,110,104.51Zm0.88,0a1.85,1.85,0,1,0,1.85-1.91A1.84,1.84,0,0,0,110.85,104.5Z" transform="translate(-0.15 -0.04)"/>
      <path class="cls-1" d="M116.19,104.51a2.73,2.73,0,1,1,2.73,2.72A2.72,2.72,0,0,1,116.19,104.51Zm0.89,0a1.85,1.85,0,1,0,1.85-1.91A1.84,1.84,0,0,0,117.07,104.5Z" transform="translate(-0.15 -0.04)"/>
      <path class="cls-1" d="M123.74,107.08h-0.89V98h0.89v9.08Z" transform="translate(-0.15 -0.04)"/>
      <path class="cls-1" d="M130.52,105.39l1.55-3.48h1l-2.54,5.51L128,101.91h1Z" transform="translate(-0.15 -0.04)"/>
      <path class="cls-1" d="M138.66,107.08h-0.88v-0.72h0a2.19,2.19,0,0,1-1.79.86,2.74,2.74,0,0,1,0-5.46,2.25,2.25,0,0,1,1.78.88h0v-0.74h0.88v5.17Zm-4.28-2.64a1.79,1.79,0,0,0,1.7,2,1.77,1.77,0,0,0,1.74-2,1.73,1.73,0,0,0-1.75-1.87A1.76,1.76,0,0,0,134.38,104.44Z" transform="translate(-0.15 -0.04)"/>
      <path class="cls-1" d="M141.19,102.54h0a1.75,1.75,0,0,1,1.48-.77c1.44,0,1.77,1,1.77,2.24v3.07h-0.88v-2.92c0-.84-0.07-1.58-1.09-1.58-1.22,0-1.29,1.12-1.29,2v2.45H140.3v-5.17h0.88v0.63Z" transform="translate(-0.15 -0.04)"/>
      <path class="cls-1" d="M150.81,104.73l-1,2.36h-1l3.85-8.69,3.75,8.69h-1l-1-2.36h-3.56Zm1.8-4.18-1.43,3.32H154Z" transform="translate(-0.15 -0.04)"/>
      <path class="cls-1" d="M158.16,107.08h-0.88V98h0.88v9.08Z" transform="translate(-0.15 -0.04)"/>
      <path class="cls-1" d="M159.76,98h0.88v4.64h0a2.23,2.23,0,0,1,1.78-.88,2.74,2.74,0,0,1,0,5.46,2.19,2.19,0,0,1-1.79-.86h0v0.72h-0.88V98Zm0.84,6.44a1.79,1.79,0,0,0,1.7,2,1.77,1.77,0,0,0,1.74-2,1.73,1.73,0,0,0-1.75-1.87A1.76,1.76,0,0,0,160.6,104.44Z" transform="translate(-0.15 -0.04)"/>
      <path class="cls-1" d="M166.63,104.68a1.68,1.68,0,0,0,1.7,1.73,1.78,1.78,0,0,0,1.58-1.07l0.75,0.43a2.63,2.63,0,0,1-2.4,1.45,2.51,2.51,0,0,1-2.54-2.66,2.52,2.52,0,1,1,5,.12h-4.08Zm3.15-.75a1.58,1.58,0,0,0-1.53-1.35,1.64,1.64,0,0,0-1.58,1.35h3.11Z" transform="translate(-0.15 -0.04)"/>
      <path class="cls-1" d="M175.8,106.37h0a2.22,2.22,0,0,1-1.79.86,2.74,2.74,0,0,1,0-5.46,2.25,2.25,0,0,1,1.78.88h0V98h0.88v9.08H175.8v-0.72Zm-3.4-1.92a1.79,1.79,0,0,0,1.7,2,1.77,1.77,0,0,0,1.74-2,1.73,1.73,0,0,0-1.75-1.87A1.76,1.76,0,0,0,172.4,104.44Z" transform="translate(-0.15 -0.04)"/>
      <path class="cls-1" d="M183.07,107.08h-0.89v-0.72h0a2.19,2.19,0,0,1-1.79.86,2.74,2.74,0,0,1,0-5.46,2.25,2.25,0,0,1,1.78.88h0v-0.74h0.89v5.17Zm-4.28-2.64a1.79,1.79,0,0,0,1.7,2,1.77,1.77,0,0,0,1.74-2,1.73,1.73,0,0,0-1.75-1.87A1.76,1.76,0,0,0,178.79,104.44Z" transform="translate(-0.15 -0.04)"/>
      <path class="cls-1" d="M188.56,104.68a1.68,1.68,0,0,0,1.7,1.73,1.78,1.78,0,0,0,1.58-1.07l0.75,0.43a2.63,2.63,0,0,1-2.4,1.45,2.51,2.51,0,0,1-2.54-2.66,2.52,2.52,0,1,1,5,.12h-4.08Zm3.15-.75a1.58,1.58,0,0,0-1.53-1.35,1.64,1.64,0,0,0-1.58,1.35h3.11Z" transform="translate(-0.15 -0.04)"/>
      <path class="cls-1" d="M194.75,102.54h0a1.75,1.75,0,0,1,1.48-.77c1.44,0,1.77,1,1.77,2.24v3.07h-0.88v-2.92c0-.84-0.07-1.58-1.1-1.58-1.22,0-1.29,1.12-1.29,2v2.45h-0.88v-5.17h0.88v0.63Z" transform="translate(-0.15 -0.04)"/>
      <path class="cls-1" d="M208.4,106.22v0.86h-6L207,99.64h-4V98.79h5.52L204,106.22h4.44Z" transform="translate(-0.15 -0.04)"/>
      <path class="cls-1" d="M214.35,107.08h-0.89v-0.72h0a2.19,2.19,0,0,1-1.79.86,2.74,2.74,0,0,1,0-5.46,2.25,2.25,0,0,1,1.78.88h0v-0.74h0.89v5.17Zm-4.28-2.64a1.79,1.79,0,0,0,1.7,2,1.77,1.77,0,0,0,1.74-2,1.73,1.73,0,0,0-1.75-1.87A1.76,1.76,0,0,0,210.06,104.44Z" transform="translate(-0.15 -0.04)"/>
      <path class="cls-1" d="M219.85,106.37h0a2.22,2.22,0,0,1-1.79.86,2.74,2.74,0,0,1,0-5.46,2.25,2.25,0,0,1,1.78.88h0V98h0.89v9.08h-0.89v-0.72Zm-3.4-1.92a1.79,1.79,0,0,0,1.7,2,1.77,1.77,0,0,0,1.74-2,1.73,1.73,0,0,0-1.75-1.87A1.76,1.76,0,0,0,216.45,104.44Z" transform="translate(-0.15 -0.04)"/>
      <path class="cls-1" d="M223.21,103.82l1.89-1.92h1.18l-2.22,2.2,2.64,3h-1.17l-2.09-2.36-0.23.23v2.12h-0.88V98h0.88v5.82Z" transform="translate(-0.15 -0.04)"/>
      <path class="cls-1" d="M228.81,100a0.63,0.63,0,0,1-1.26,0A0.63,0.63,0,0,1,228.81,100Zm-0.19,7.12h-0.89v-5.17h0.89v5.17Z" transform="translate(-0.15 -0.04)"/>
      <path class="cls-1" d="M231.36,102.54h0a1.75,1.75,0,0,1,1.48-.77c1.44,0,1.77,1,1.77,2.24v3.07h-0.88v-2.92c0-.84-0.07-1.58-1.09-1.58-1.22,0-1.29,1.12-1.29,2v2.45h-0.88v-5.17h0.88v0.63Z" transform="translate(-0.15 -0.04)"/>
      <path class="cls-1" d="M236.76,104.68a1.68,1.68,0,0,0,1.7,1.73,1.78,1.78,0,0,0,1.58-1.07l0.75,0.43a2.63,2.63,0,0,1-2.4,1.45,2.51,2.51,0,0,1-2.54-2.66,2.52,2.52,0,1,1,5,.12h-4.08Zm3.15-.75a1.58,1.58,0,0,0-1.53-1.35,1.64,1.64,0,0,0-1.58,1.35h3.11Z" transform="translate(-0.15 -0.04)"/>
    </g>
  </g>
</svg>
